<svg xmlns="http://www.w3.org/2000/svg" viewBox="0 0 1771 2008.51"><path d="M161.17,2299.1,0,491.38H1771L1609.65,2298.82,884.41,2499.88Z" transform="translate(0 -491.38)" style="fill:#e44d26"/><path d="M885.5,2346.2l586-162.48L1609.41,639.19H885.5Z" transform="translate(0 -491.38)" style="fill:#f16529"/><path d="M885.5,1309.65H592.13l-20.27-227H885.5V860.9H329.55l5.31,59.48,54.49,611H885.5Zm0,575.8-1,.27L637.61,1819l-15.79-176.82H399.26l31.07,348.12,454.16,126.07,1-.28Z" transform="translate(0 -491.38)" style="fill:#ebebeb"/><path d="M884.74,1309.65v221.71h273L1132,1818.9l-247.27,66.74V2116.3l454.51-126,3.33-37.47,52.11-583.68,5.41-59.54H884.74Zm0-448.75v221.72h535.53l4.44-49.84,10.11-112.4,5.3-59.48Z" transform="translate(0 -491.38)" style="fill:#fff"/></svg>