<svg xmlns="http://www.w3.org/2000/svg" viewBox="0 0 152 152">
	<g>
		<path fill="#282828" d="M77,72.33c.11,0,.22,0,.33,0h-.33Z" />
		<path fill="#282828" d="M77.33,53c-.11,0-.22,0-.33,0h0s.33,0,.33,0Z"/>
		<path fill="#2e5b92" d="M110.83,95.33c0,5.34-4.33,9.67-9.67,9.67h-50.5c-5.34,0-9.67-4.33-9.67-9.67V8.53C51.47,3.08,63.38,0,76,0c28.81,0,53.88,16.03,66.77,39.67h-65.77c-12.55.18-22.67,10.41-22.67,23s10.03,22.72,22.49,22.99h0s24.35,0,24.35,0c5.34,0,9.67,4.33,9.67,9.67Z"/>
		<path fill="#6397cb" d="M152,76c0,41.97-34.03,76-76,76S0,117.97,0,76C0,52.39,10.77,31.29,27.67,17.35v77.98c0,12.7,10.3,23,23,23h50.5c12.7,0,23-10.3,23-23s-10.3-23-23-23h-23.83c-.11,0-.22,0-.33,0-5.19-.17-9.33-4.43-9.33-9.66s4.15-9.49,9.33-9.66c.11,0,.22,0,.33,0h71.12c2.31,7.25,3.55,14.98,3.55,23Z"/>
	</g>
</svg>