<?xml version="1.0" encoding="utf-8"?>
<!-- Generator: Adobe Illustrator 27.7.0, SVG Export Plug-In . SVG Version: 6.00 Build 0)  -->
<svg version="1.1" id="Layer_1" xmlns="http://www.w3.org/2000/svg" xmlns:xlink="http://www.w3.org/1999/xlink" x="0px" y="0px"
	 viewBox="0 0 2500 2500" style="enable-background:new 0 0 2500 2500;" xml:space="preserve">
<style type="text/css">
	.st0{fill-rule:evenodd;clip-rule:evenodd;fill:#FFFFFF;}
	.st1{fill-rule:evenodd;clip-rule:evenodd;fill:#F6D330;}
	.st2{fill-rule:evenodd;clip-rule:evenodd;}
</style>
<g>
	<path class="st0" d="M946.3,684.2l-3.7-255.4l152-89l225.7-152l92.8-3.8l96.5,103.7l52,344.7l-70.5,126l-292.7-7.5L946.3,684.2
		L946.3,684.2z"/>
	<path class="st0" d="M646.1,1414.4l77.7-218.7l152-181.5l77.7-155.7l33.5-51.7l555.6-85.2L1654,895.7l311.2,744.6l-107.5,133.2
		l-281.7,471l-66.4,14.7L994.3,2274l-359.4-400.2l-59.2-333.4L646.1,1414.4L646.1,1414.4z"/>
	<path class="st1" d="M1357.5,847.4c0,0-18.5-3.8,33.2-15c52-11,52.3-22,66.7-37c14.7-14.7,22.3-48.3,22.3-85.2
		c0-37,18.5-144.5,14.7-173.9c-3.4-29.8-66.7-140.7-92.5-155.7c-26-14.7-314.9-40.8-314.9-40.8l-89,70.5L931.3,473l15,200.2
		c0,0-18.8,63-15,88.7c3.8,26,41,55.8,55.8,70.5c14.7,15,70.2,74.6,88.7,92.7c18.8,18.5,22.5,37,66.7,22.2
		c44.5-14.7,70.5-14.7,104-40.7C1279.8,880.7,1357.5,847.4,1357.5,847.4z"/>
	<path class="st0" d="M1187,532.5c11.3-29.8,26-85.2,51.7-103.7c26-18.5,81.8-33.8,115-29.8c33.5,3.8,96.2,37,111.2,63
		c14.7,26,14.7,129.7,14.7,129.7l-7.5,85.2l-51.7-3.7l-111.2-44.5h-18.5c0,0-18.5,7.2-74.3-22.2C1161,576.7,1175.8,562.3,1187,532.5
		L1187,532.5z M1068.6,614c1.7-1.7,5.2-4,9.8-6.7c22.5-12.4,71.6-30.6,71.6-30.6s48-121.9,7.2-170.2
		c-40.5-48.2-129.4-40.7-129.4-40.7s-96.2,55.5-92.7,77.7c3.8,22.3,7.5,100,11.3,111c3.5,11.3,18.5,129.7,18.5,129.7l33.2-14.7
		l48.3-37C1046.3,632.5,1057.6,625.2,1068.6,614L1068.6,614z"/>
	<path class="st1" d="M1776.2,1733l53.7,4c7.8,0.6,15.6,0.9,23.4,1.2c39.9,1.4,74.8,7.5,112.1,12.1c24.6,2.9,65.3,18.5,68.2,49.4
		c4,45.7-9.2,95.9,29.5,114.7c39.6,26.9,128,89,128,89l26,47.9l-77.7,70.5l-381.7,229.7l-174-59.2v-140.7l7.2-189l-18.5-170.5
		l29.5-66.7l74.3-22.3L1776.2,1733L1776.2,1733z M672.4,1649.8c-3.8-3.5-71.4,16.5-75.7,17.3c-31.5,4.6-71.4,26.3-71.4,60.7
		c0,17.6-1.4,35.8-9.5,51.7c-6.4,12.4-20.8,31.2-20.5,35.3c-4.9,13.6-13.9,32.6-26.3,40.7c-14.4,1.5-78.6,7.2-78.6,7.2h-55.8
		l-33.2,40.4l26,107.8l-7.5,85l-25.7,96.5l62.7,33.2l474.4,126l107.5-33.2l55.5-137.2l-11.3-51.7l-51.7-103.7
		C931.3,2025.7,705.9,1698.4,672.4,1649.8L672.4,1649.8z"/>
	<path class="st2" d="M914,486.8c-7.8-258.6,93-372.7,302.5-376.5c209.2-4,340.4,106.3,367.3,251.1
		c26.6,144.5,11.3,334.9,64.7,433.7c53.2,99.1,87.3,175.1,178.9,289.2c91.3,114.1,148.2,230.3,174.8,371.3
		c26.8,140.7,41.9,207.2-26.6,279.7c-68.5,72.2-190.1,190.1-281.4,56.9c-45.9-66.7-50.8-149.7,26.6-167.3
		c49.4-11.6,84.9-7.8,121.6,11.3c37,19.1,45.7,10.1,1.4-22.8c-44.5-32.9-53.4-2.6-38.1-55.8c15.3-53.2,35.3-148.8-6.4-254
		c-19.4-48.5-84.9-181.4-146.5-214.1c-5.5-3.2-21.7-9.8-10.7,3.8c16.5,20.5,105.2,151.1,130.3,228.8
		c26.9,83.5,30.6,163.3,16.8,213.8c-13.9,50.9-38.1,71.1-67.3,71.1c-29.2,0-55.8,13.9-55.8-53.2c0-67.3,6.9-168.7-29.2-254.6
		c-36.1-85.5-80-144.5-89.6-180.6c-9.2-36.1-30.3-133.2-74-188.4c-43.9-55.2-63-91.3-40.2-154.3c22.8-62.7,5.8-79.8-39.9-93
		c-45.7-13.3-106.6-32.4-121.6-63c-15.3-30.3-5.8-91.3,28.3-106.3c34.4-15.3,91.3,5.5,93.3,49.4c2,43.6-19.1,66.5-13.3,76
		c5.8,9.5,36.1,24.9,51.4,7.8c15-17.3,19.1-70.5,3.7-119.9c-15.3-49.4-22.8-83.8-78-95.1c-55.2-11.6-80-7.8-106.6,26.6
		c-26.6,34.1-38.1,89.3-30.3,129.5c7.5,39.9-7.8,17-34.4,15c-26.6-1.7-19.1-3.8-45.7-1.7c-26.6,1.7-17-15.3-19.1-43.9
		c-1.7-28.6-5.5-87.5-45.7-110.4c-39.9-22.8-108.3,3.8-106.6,99.1c2,95.1,34.4,140.7,53.5,106.3c19.1-34.1,9.5-17-9.5-32.4
		c-19.1-15-32.4-78-11.6-96.8c21.1-19.1,45.7-19.1,59.2-7.8c13.3,11.6,34.1,49.7,30.3,74.3c-3.8,24.9-5.8,26.6-30.3,43.9
		c-24.9,17-34.4,32.4-63,51.1c-28.6,19.1-39.9,63-17,74.3c22.8,11.6,24.9,9.5,43.6,38.1c19.1,28.6,51.4,41.9,131.5,28.6
		c79.8-13.3,112.7-32.4,173.1-53.5c43.9-15,28.6-13.3,43.9-30.3c15-17,39.9,7.5,17,22.8c-22.8,15.3-74.3,30.3-112.4,43.6
		c-37.9,13.6-81.8,51.4-161.5,47.7c-80-3.8-24.9-2-49.7-3.8c-24.6-2-36.1,1.7-9.5,20.8c26.9,19.1,24.9,24.9,47.7,32.4
		c22.8,7.8,53.2,7.8,89.6-5.5c36.1-13.6,127.4-53.5,156-72.5c28.3-19.1,51.1,5.8,22.8,24.9c-28.6,19.1-36.4,13.3-63,30.3
		c-26.6,17.3-76,45.7-108.3,76.3c-32.4,30.3-39.9,32.4-80,34.1c-39.9,2-64.7-39.9-81.8-58.9c-17-19.1-15.3-30.3-36.1-53.2
		c-20.8-22.8-22.8-17.3-26.6,7.5c-3.8,24.9-32.4,87.5-57.2,129.5c-24.6,41.9-26.6,93.3-22.8,129.5s-5.8,39.9-34.1,81.8
		c-28.6,41.9-76.3,165.6-83.8,205.4c-7.5,39.9-17,121.9-13.3,169.3c3.8,47.7-9.5,57.2-43.9,24.8c-34.1-32.4-45.7-68.5-43.6-116.2
		c1.7-40.7,7.2-69.3,12.4-84.4c5.2-15,0.3-25.4-10.7-6.9c-23.4,40.4-24.6,110.4-18.8,135.2c5.5,24.6,7.5,68.5,70.2,127.4
		c63,58.9,154.3,140.7,230.3,195.9c76.3,55.2,102.9,123.7-9.5,173.1c70.5,95.4,108.6,144.8,78,207.5c63-36.1,38.7-121.3,8.4-144.2
		c-30.6-22.8-12.1-40.4,14.4-23.1c26.6,17,36.1,51.1,141,49.4c104.6-2,217.3-12.4,280.3-104c62.7-91.3,74.8-14.4,59.5,39
		c-15,53.2-52.6,173.4,6.4,162.1c7.5-70.5,24.9-131.5,24.9-207.5c0-76.3,7.5-113,1.8-223.4c-5.8-106.3,40.2-113.6,87.5-113.6
		c47.7,0,32.3,30.6,2,28.6c-30.6-2-62.7,9.5-64.7,87.6c-2,78,0,70.5,13.3,140.7c13.3,70.5,15.3,91.3,3.8,169.3
		c-11.3,78-20.8,119.9,30.6,167.6c51.1,47.7,129.1,34.1,169.3,3.7c39.9-30.3,115.9-100.8,184.3-123.7c68.8-22.8,141-39.9,179.1-78
		c37.9-38.1,28.3-64.7-11.6-85.5c-39.9-21.1-78-11.6-108.3-45.7c-30.6-34.4-45.7-110.4-34.4-150.5c11.6-39.9,24.9-22.8,24.9,5.8
		c0,28.6,1.8,55.2,30.3,91.3c28.6,36.1,55.2,53.5,100.8,81.8c45.7,28.6,74.3,74.3,17,114.4c-56.9,39.9-89.3,62.7-137,81.8
		c-47.4,19.1-125.4,64.7-173.1,112.1c-47.7,47.7-74.3,89.6-167.6,89.6c-93,0-135.8-22.5-163.5-78c-19.1-38.1-28.6-32.3-72.2-34.4
		c-43.9-1.7-190.4-3.8-304.5-1.7c-114.1,1.7-152.3,20.8-203.7,62.7c-51.1,41.9-70.2,74.3-167.3,41.9s-148.5-68.5-293-97.1
		c-144.8-28.6-66.7-15.3-154.3-34.4c-87.5-18.8-81.8-60.7-70.2-95.1c11.3-34.1,39.9-87.6,15-157.8c-24.6-70.5-15-142.7,51.4-142.7
		c66.7,0,129.5,13.3,156-74.3c26.6-87.5,34.4-19.1,26.6,3.8c-7.5,22.8-11.3,85.5-70.2,95.1c-58.9,9.5-72.2-3.8-108.6-3.8
		c-36.1,0-51.1,24.9-32.4,66.7c19.1,41.9,40.2,85.5,36.4,121.6c-4,36.1-7.8,49.4-34.4,83.8c-26.6,34.1-22.8,51.4,24.9,62.7
		c47.4,11.6,133.2,34.4,213,53.5c80,18.8,85.8,18.8,224.5,55.2c139,36.1,177.1-28.6,188.4-106.6c11.6-78-41.9-152.3-91.3-226.5
		c-49.4-74.3-102.6-159.7-167.3-237.8c-64.7-78-102.9-83.8-135.2-66.7c-32.4,17.3-38.1,13.6-39.9-30.3c-2-43.6-5.8-72.2,30.3-137
		c36.1-64.7,68.5-135.2,106.6-243.6c38.1-108.3,72.2-129.4,137-222.8c64.7-93,36.1-56.9,81.8-119.6c45.7-63,32.4-51.4,28.6-150.5
		C921.5,673.5,917.7,616.3,914,486.8L914,486.8z M732.2,1260.6c9.8,11.9,23.7-16.2,38.1-26.9c12.7-11.4,18.6-28.6,15.6-45.4
		c-1.4-8.9-15.9-6.1-18.8-2.9c-8.9,8.9-6.9,23.4-13.3,35.8C746.7,1236.4,722.4,1248.5,732.2,1260.6L732.2,1260.6z M1550.2,863
		c20.5,17.3,33.2,32.4,44.5,6.7c11.6-25.7,11.6-36.1-16.2-46.5c-27.5-10.7-39.9-22-52.3-36.1c-12.4-14.4-16.7,10.1-6.6,34.1
		C1532,850.6,1539.3,854.1,1550.2,863L1550.2,863z M1121.4,627c-14.2-2.9-31.2-1.7-40.8,9.5c-3.8,3.8-2,14.4,4.6,17.3
		c8.7,3.8,14.4-4.9,16.2-11.6c0.9-2.9,2-6.6,4.9-7.5c3.8-2,9.2-0.3,13.3-2C1124.3,631,1122.6,627,1121.4,627L1121.4,627z
		 M1188.8,629.6c5.8,8.7,16.2,8.7,24.9,12.4c4.6,2,14.2,4.9,17-1.7c6.7-21.1-22-14.4-35.3-14.4
		C1192.5,625.8,1185.9,625,1188.8,629.6L1188.8,629.6z M1327.5,537.4c13,0.6,30.6,23.7,32.3,50.6c0.3,4,11.3,3.7,13.6-0.3
		c6.1-10.7,1.8-22.5-1.1-35.3c-2.3-10.4-14.7-21.1-25.1-25.7c-6.9-3.5-14.2-4.6-23.4-3.5C1321.4,524.4,1313.3,536.5,1327.5,537.4
		L1327.5,537.4z M1044,530.8c-11.9,0.9-7.5,10.1-6.9,17.6c16.5,9.2,17.9,30.1,21.4,46.5c0.3,6.4,9.8,3.5,10.7,1.5
		c7.2-13.3-1.7-28.3-4.9-43.9c-2.9-8.1-8.4-17.3-15.9-22.8C1047.2,528.5,1045.2,530.8,1044,530.8L1044,530.8z M1407.5,239.2
		c-11.9-9.5-30.3-13.3-35.8,2.3c-5.8,13.3-3.5,26.9-6.7,41.3c0,4.6-5.8,5.8-8.9,10.1c-4.6,5.5-3.5,12.4-1.2,14.4
		c11,11.3,31.2-11,46-18.8c11-6.9,26.8,2,39-5.8c3.4-2.3,4.6-7.8,1.1-12.1C1433.2,257.1,1419.6,249.3,1407.5,239.2z"/>
	<path class="st2" d="M1750.2,1752.1c1.8-7.8,5.8-23.1,13.3-25.4c2.6-0.9,4.9,0.3,5.8,2.9c1.7,4.9-3.5,32.9-1.4,39.3
		c2.3,6.6,10.1,5.8,15.6,4c13-4.3,20.5-19.6,19.9-21.1c0-0.6-0.3-0.6-0.9-0.6c-2,0.6-3.8,7.8-9.5,9.5c-3.7,1.2-6.6,0.6-7.8-3.2
		c-1.1-4,3.8-32.9,1.4-39.6c-2-6.6-8.7-8.4-15-6.4c-14.2,4.6-20.2,26.3-24,39h-0.3l2-29.8l-17.6,5.8l-0.9,61.5l16.5-5.5
		C1747.6,1772.1,1748.2,1759.9,1750.2,1752.1L1750.2,1752.1z M1826.5,1758.8c14.1-4.6,20.5-21.4,19.9-23.4c-0.3-0.6-0.6-0.9-1.1-0.9
		c-1.2,0.6-3.7,10.1-11.9,12.7c-3.5,1.2-6.6,0.3-7.5-2c-1.2-3.5-0.3-9.5-0.3-14.7l0.6-27.7l19.4-6.4l-0.3-6.7l-19.4,6.4l0.9-26.3
		l-17.3,9.8l-0.9,58.6c0,6.4-0.6,11.8,0.6,14.7C1811.4,1760.5,1819.2,1761.4,1826.5,1758.8L1826.5,1758.8z"/>
</g>
</svg>
