<svg xmlns="http://www.w3.org/2000/svg" viewBox="0 0 2500 1991.52"><path d="M519.26.24c-142.65,0-248.2,124.85-243.47,260.25,4.53,130.09-1.36,298.56-43.77,436C189.45,834.22,117.52,921.53,0,932.74v126.52c117.52,11.23,189.45,98.5,232,236.3,42.42,137.39,48.31,305.86,43.77,436-4.73,135.38,100.83,260.25,243.5,260.25H1980.93c142.65,0,248.18-124.85,243.45-260.25-4.53-130.09,1.36-298.56,43.77-435.95,42.57-137.8,114.33-225.1,231.85-236.3V932.74c-117.52-11.23-189.28-98.5-231.85-236.3-42.41-137.37-48.3-305.86-43.77-435.95C2229.11,125.11,2123.58.24,1980.93.24H519.26ZM1694.92,1226.15c0,186.44-139.07,299.51-369.86,299.51H932.2a42.37,42.37,0,0,1-42.37-42.37h0V508.71a42.37,42.37,0,0,1,42.37-42.37h390.63c192.43,0,318.73,104.24,318.73,264.28,0,112.33-85,212.89-193.2,230.51V967c147.34,16.16,246.56,118.21,246.56,259.16ZM1282.23,600.66h-224V917.07h188.67c145.85,0,226.27-58.73,226.27-163.71,0-98.38-69.16-152.7-190.93-152.7Zm-224,441.95V1391.3h232.25c151.85,0,232.29-60.93,232.29-175.45s-82.69-173.26-242.06-173.26H1058.22Z" transform="translate(0 -0.24)" style="fill:#7952b3;fill-rule:evenodd"/></svg>