<svg xmlns="http://www.w3.org/2000/svg" viewBox="0 0 1818.7 2496.7"><path d="M0,2015.5l15.12-21.16,715-1356.67,1.51-14.36-315.17-592C390-18.31,315.68-5.77,307,49.75Z" transform="translate(0 -0.25)" style="fill:#ffc24a"/><path d="M8.92,1999.37l11.43-22.3L727.85,634.62,413.46,40.18C387.33-8.89,321,3.62,312.4,58.56Z" transform="translate(0 -0.25)" style="fill:#ffa712;fill-rule:evenodd"/><path d="M961.38,1071.12l234.68-240.34L961.31,382.65c-22.28-42.42-84.5-42.55-106.54,0L729.34,621.83v20.36l232,428.93Z" transform="translate(0 -0.25)" style="fill:#f4bd62"/><path d="M957.2,1061.11l228.15-233.66L957.2,393c-21.67-41.24-74.3-45.56-95.73-4.2L735.39,631.7l-3.78,12.42Z" transform="translate(0 -0.25)" style="fill:#ffa50e;fill-rule:evenodd"/><path d="M0,2015.5l6.85-6.89,24.9-10.11L946.64,1087l11.6-31.56L730,620.53Z" transform="translate(0 -0.25)" style="fill:#f6820c"/><path d="M990.69,2475.19l828-461.78L1582.25,557.18c-7.4-45.56-63.29-63.57-95.91-30.9L0,2015.5l823.26,459.66a171.8,171.8,0,0,0,167.43,0" transform="translate(0 -0.25)" style="fill:#fde068"/><path d="M1811.28,2009.54,1576.62,564.37c-7.33-45.22-53.82-63.93-86.18-31.51L9.19,2012.67,823.4,2467.76a170.52,170.52,0,0,0,166.17,0l821.72-458.28Z" transform="translate(0 -0.25)" style="fill:#fcca3f"/><path d="M990.69,2461.58a171.8,171.8,0,0,1-167.43,0L6.63,2008.5l-6.62,7,823.25,459.66a171.8,171.8,0,0,0,167.43,0l828-461.78-2-12.48-826,460.66Z" transform="translate(0 -0.25)" style="fill:#eeab37"/></svg>