<svg xmlns="http://www.w3.org/2000/svg" xmlns:xlink="http://www.w3.org/1999/xlink" viewBox="0 0 455.87 455.87"><defs><linearGradient id="a" x1="85.17" y1="267.16" x2="47.83" y2="225.91" gradientUnits="userSpaceOnUse"><stop offset="0.09" stop-color="#129bc6"/><stop offset="0.39" stop-color="#1589d0"/><stop offset="0.94" stop-color="#196de0"/></linearGradient><linearGradient id="b" x1="495.29" y1="267.16" x2="457.95" y2="225.91" gradientTransform="matrix(-1, 0, 0, 1, 866, 0)" xlink:href="#a"/><linearGradient id="c" x1="301.61" y1="164.74" x2="275.91" y2="220.91" gradientUnits="userSpaceOnUse"><stop offset="0.17" stop-color="#127ec6"/><stop offset="0.6" stop-color="#1490b2"/></linearGradient></defs><rect width="455.87" height="455.87" style="fill:#141414"/><polygon points="324.9 57.43 192.66 398.44 130.97 398.44 263.23 57.43 324.9 57.43" style="fill:#3f3f3f"/><polygon points="34.2 159.02 34.2 159.1 34.15 159.06 34.2 159.02" style="fill:#fff"/><polygon points="34.16 234.75 34.2 234.72 34.2 234.78 34.16 234.75" style="fill:#fff"/><polygon points="196.77 293.52 196.77 369.21 30.6 265.82 30.55 265.79 30.6 265.75 30.6 190.13 91.37 227.95 196.77 293.52" style="fill:#129bc6"/><polygon points="118.07 244.56 57.24 282.41 30.59 265.82 30.55 265.79 30.59 265.75 30.59 190.13 91.37 227.95 118.07 244.56" style="fill:url(#a)"/><polygon points="196.77 86.66 196.77 162.36 91.37 227.95 30.6 265.75 30.6 190.13 30.54 190.1 30.6 190.05 196.77 86.66" style="fill:#19a8e0"/><polygon points="421.67 159.02 421.67 159.1 421.73 159.06 421.67 159.02" style="fill:#fff"/><polygon points="421.71 234.75 421.67 234.72 421.67 234.78 421.71 234.75" style="fill:#fff"/><polygon points="320.88 200.79 320.88 327.33 259.11 327.33 259.11 162.36 320.88 200.79" style="fill:#1490b2"/><polygon points="259.11 293.52 259.11 369.21 425.27 265.82 425.32 265.79 425.27 265.75 425.27 190.13 364.5 227.95 259.11 293.52" style="fill:#129bc6"/><polygon points="337.8 244.56 398.63 282.41 425.29 265.82 425.32 265.79 425.29 265.75 425.29 190.13 364.5 227.95 337.8 244.56" style="fill:url(#b)"/><polygon points="320.88 160.66 320.88 219.6 259.11 181.17 259.11 160.66 320.88 160.66" style="fill:url(#c)"/><polygon points="425.34 190.1 425.28 190.13 425.28 265.75 364.51 227.94 320.88 200.79 259.11 162.36 259.11 86.66 425.28 190.05 425.34 190.1" style="fill:#19a8e0"/></svg>