<svg xmlns="http://www.w3.org/2000/svg" viewBox="0 0 2200.99 2475.37"><path d="M2350.49,739.09c0-41.36-8.81-78.66-27.12-109.85q-26.45-46.79-79.33-77.3Q1804.65,298.68,1364.59,45.43c-79.33-45.43-155.28-44.07-233.93,2C1014,116,429.55,450.91,256,551.94,184.09,593.3,149.51,657,149.51,739.77v1019.8c0,40.68,8.81,76.62,25.76,107.81,17.63,31.87,44.76,59,80.69,80,174.27,101,758.07,435.31,874.7,504.48,78.65,46.1,155.28,48.13,233.93,2Q1804,2199.63,2244,1947.39c36.61-21,63.06-47.46,80.68-80,17-31.19,25.77-67.13,25.77-107.81Z" transform="translate(-149.51 -12.11)" style="fill:#9a4993"/><path d="M1252.71,1245.6,173.92,1866.7c17.63,31.87,44.75,59,80.69,80,174.26,101,758.07,435.31,874.69,504.48,78.66,46.11,155.28,48.14,233.94,2q439.38-254.26,879.44-506.51c36.61-21,63.06-47.46,80.69-80Z" transform="translate(-149.51 -12.11)" style="fill:#6a1577"/><path d="M933.34,1429.35c63.07,109.85,181.05,183.76,316,183.76,136.29,0,255-74.59,317.33-185.79L1252.71,1245.6Z" transform="translate(-149.51 -12.11)" style="fill:#6a1577"/><path d="M2350.49,739.09c0-41.36-8.81-78.66-27.12-109.85L1252.71,1245.6l1072,621.1c17-31.19,25.77-67.13,25.77-107.81Z" transform="translate(-149.51 -12.11)" style="fill:#813084"/><path d="M1566.65,1427.32c-62.38,110.52-181,185.79-317.33,185.79a362.59,362.59,0,0,1-316-183.76c-30.52-53.56-48.15-114.59-48.15-180.36,0-201.39,162.74-364.12,364.12-364.12,134.26,0,251.56,73.23,314.62,181.72l318-183.08C1755.16,665.18,1519.19,518,1248.64,518c-404.12,0-730.94,327.5-730.94,731a728.37,728.37,0,0,0,97,364.12c126.12,219,363.44,366.83,634.66,366.83,271.91,0,509.23-148.5,635.34-368.87Zm402.09-351.24h-72.55v350.56h72.55Zm160.7,0h-72.55v350.56h72.55Z" transform="translate(-149.51 -12.11)" style="fill:#fff"/><path d="M2188.43,1135.07H1837.88v72.56h350.55Zm0,160H1837.88v72.56h350.55Z" transform="translate(-149.51 -12.11)" style="fill:#fff"/></svg>