<?xml version="1.0" encoding="UTF-8"?>
<svg id="Logo" xmlns="http://www.w3.org/2000/svg" viewBox="0 0 325.67 367.82">
  <defs>
    <style>
      .cls-1, .cls-2, .cls-3 {
        stroke-width: 0px;
      }

      .cls-2 {
        fill: gray;
      }

      .cls-3 {
        fill: #4c4c4c;
      }
    </style>
  </defs>
  <g id="g849">
    <path id="path6" class="cls-3" d="M325.67,257.47V85.82L177.01,0v65.9l58.24,33.72c2.3,1.53,2.3,4.6,0,5.36l-68.97,39.85c-2.3,1.53-4.6.77-6.13,0l-68.97-39.85c-2.3-.77-2.3-4.6,0-5.36l58.24-33.72V0L0,85.82v171.65-.77.77l56.7-32.95v-67.43c0-2.3,3.07-3.83,4.6-3.07l68.97,39.85c2.3,1.53,3.07,3.07,3.07,5.36v79.69c0,2.3-3.07,3.83-4.6,3.07l-58.24-33.72-56.7,32.95,148.66,86.59,148.66-85.82-56.7-32.95-58.24,33.72c-2.3,1.53-4.6,0-4.6-3.07v-79.69c0-2.3,1.53-4.6,3.07-5.36l68.97-39.85c2.3-1.53,4.6,0,4.6,3.07v67.43l57.47,32.18Z"/>
    <path id="path8" class="cls-1" d="M162.45,367.82l148.66-85.82-56.7-32.95-58.24,33.72c-2.3,1.53-4.6,0-4.6-3.07v-79.69c0-2.3,1.53-4.6,3.07-5.36l68.97-39.85c2.3-1.53,4.6,0,4.6,3.07v67.43l56.7,32.95V85.82l-162.45,94.25v187.74Z"/>
    <path id="path10" class="cls-2" d="M177.01,0v65.9l58.24,33.72c2.3,1.53,2.3,4.6,0,5.36l-68.97,39.85c-2.3,1.53-4.6.77-6.13,0l-68.97-39.85c-2.3-.77-2.3-4.6,0-5.36l58.24-33.72V0L0,85.82l162.45,94.25,162.45-94.25L177.01,0Z"/>
    <path id="path12" class="cls-3" d="M129.5,282.76l-58.24-33.72-56.7,32.95,148.66,85.82v-187.74L0,85.82v171.65-.77.77l56.7-32.95v-67.43c0-2.3,3.07-3.83,4.6-3.07l68.97,39.85c2.3,1.53,3.07,3.07,3.07,5.36v79.69c.77,3.07-1.53,5.36-3.83,3.83Z"/>
  </g>
</svg>